<svg width="14" height="22" viewBox="0 0 14 22" fill="none" xmlns="http://www.w3.org/2000/svg">
<path opacity="0.7" d="M7.29072 8.41468H12.3573L11.7944 10.6665H7.29072V20.7999H5.03886V10.6665H0.535156V8.41468H5.03886V6.30695C5.03886 4.29943 5.24828 3.57095 5.6401 2.83685C6.02405 2.11153 6.61718 1.5184 7.3425 1.13445C8.07661 0.742626 8.80508 0.533203 10.8126 0.533203C11.4003 0.533203 11.916 0.589499 12.3573 0.702092V2.78505H10.8126C9.32188 2.78505 8.86813 2.87288 8.40537 3.12059C8.06309 3.30299 7.80864 3.55744 7.62624 3.89972C7.37853 4.36248 7.29072 4.81623 7.29072 6.30695V8.41468Z" fill="white" stroke="white" stroke-width="1.06667"/>
</svg>
