<svg width="21" height="21" viewBox="0 0 21 21" fill="none" xmlns="http://www.w3.org/2000/svg">
<path opacity="0.7" d="M15.7874 3.56091C15.5432 3.56091 15.3044 3.63334 15.1013 3.76906C14.8982 3.90475 14.7398 4.09763 14.6464 4.3233C14.5529 4.54897 14.5285 4.79729 14.5761 5.03685C14.6237 5.27642 14.7413 5.49647 14.9141 5.66919C15.0869 5.8419 15.3069 5.95954 15.5465 6.00719C15.786 6.05483 16.0344 6.03038 16.26 5.9369C16.4857 5.84343 16.6785 5.68514 16.8142 5.48205C16.95 5.27895 17.0224 5.04017 17.0224 4.79591C17.0224 4.46837 16.8924 4.15425 16.6606 3.92263C16.429 3.69103 16.1149 3.56091 15.7874 3.56091ZM20.5216 6.0515C20.5016 5.19759 20.3417 4.35275 20.0481 3.55062C19.7865 2.86431 19.3792 2.24285 18.8544 1.72899C18.3446 1.20147 17.7218 0.796753 17.0326 0.545459C16.2326 0.243049 15.3869 0.0794613 14.5318 0.0617493C13.4409 4.96705e-09 13.091 0 10.2917 0C7.49234 0 7.14242 4.96705e-09 6.0515 0.0617493C5.19642 0.0794613 4.35065 0.243049 3.55062 0.545459C2.86282 0.7993 2.24043 1.20367 1.72901 1.72899C1.20147 2.23862 0.796752 2.86154 0.545459 3.55062C0.243045 4.35065 0.0794587 5.19641 0.061752 6.0515C0 7.14242 0 7.49234 0 10.2917C0 13.091 0 13.4409 0.061752 14.5318C0.0794587 15.3869 0.243045 16.2328 0.545459 17.0328C0.796752 17.7218 1.20147 18.3448 1.72901 18.8544C2.24043 19.3797 2.86282 19.784 3.55062 20.0378C4.35065 20.3404 5.19642 20.5038 6.0515 20.5216C7.14242 20.5833 7.49234 20.5833 10.2917 20.5833C13.091 20.5833 13.4409 20.5833 14.5318 20.5216C15.3869 20.5038 16.2326 20.3404 17.0326 20.0378C17.7218 19.7866 18.3446 19.3818 18.8544 18.8544C19.3816 18.3424 19.7892 17.7204 20.0481 17.0328C20.3417 16.2305 20.5016 15.3858 20.5216 14.5318C20.5216 13.4409 20.5833 13.091 20.5833 10.2917C20.5833 7.49234 20.5833 7.14242 20.5216 6.0515ZM18.669 14.4084C18.6616 15.0617 18.5433 15.7089 18.3192 16.3226C18.1548 16.7705 17.8909 17.1752 17.5473 17.5061C17.2134 17.8464 16.8096 18.1097 16.3637 18.278C15.7501 18.5021 15.1028 18.6204 14.4494 18.628C13.4204 18.6794 13.0396 18.6897 10.3328 18.6897C7.62613 18.6897 7.24534 18.6897 6.21617 18.628C5.53783 18.6406 4.86241 18.5361 4.21958 18.3192C3.79329 18.1424 3.40794 17.8796 3.0875 17.5473C2.74591 17.2168 2.48527 16.8117 2.32591 16.3637C2.07465 15.7413 1.93529 15.0793 1.91425 14.4084C1.91425 13.3792 1.8525 12.9984 1.8525 10.2917C1.8525 7.58495 1.8525 7.20417 1.91425 6.17501C1.91886 5.50713 2.04078 4.84526 2.27446 4.21958C2.45565 3.78518 2.73374 3.39795 3.0875 3.0875C3.40018 2.73365 3.78661 2.45261 4.21958 2.26417C4.84691 2.03779 5.5081 1.91947 6.175 1.91425C7.20416 1.91425 7.58495 1.8525 10.2917 1.8525C12.9984 1.8525 13.3792 1.8525 14.4084 1.91425C15.0617 1.92174 15.7089 2.04006 16.3226 2.26417C16.7902 2.43774 17.21 2.71994 17.5473 3.0875C17.8846 3.40363 18.1481 3.79014 18.3192 4.21958C18.548 4.84627 18.6664 5.50787 18.669 6.17501C18.7205 7.20417 18.7308 7.58495 18.7308 10.2917C18.7308 12.9984 18.7205 13.3792 18.669 14.4084ZM10.2917 5.01205C9.2479 5.01407 8.22815 5.32545 7.36127 5.90681C6.49439 6.48818 5.8193 7.31346 5.42129 8.27835C5.02326 9.24326 4.92015 10.3045 5.12505 11.328C5.32991 12.3514 5.83357 13.2912 6.57234 14.0285C7.31111 14.766 8.25187 15.2678 9.27573 15.4706C10.2996 15.6736 11.3606 15.5682 12.3248 15.1684C13.2889 14.7685 14.1129 14.0918 14.6925 13.2238C15.2721 12.3558 15.5816 11.3354 15.5816 10.2917C15.5829 9.59709 15.4469 8.9091 15.1814 8.26726C14.9161 7.62541 14.5262 7.04239 14.0346 6.55173C13.543 6.06106 12.9592 5.67243 12.3169 5.40821C11.6745 5.14397 10.9862 5.00933 10.2917 5.01205ZM10.2917 13.7188C9.61385 13.7188 8.95126 13.5178 8.38766 13.1413C7.82407 12.7646 7.38481 12.2294 7.12542 11.6032C6.86602 10.9769 6.79815 10.2879 6.93039 9.62306C7.06263 8.95826 7.38903 8.34761 7.86833 7.86833C8.3476 7.38903 8.95826 7.06263 9.62307 6.93039C10.2879 6.79815 10.9769 6.86602 11.6032 7.12542C12.2294 7.38481 12.7646 7.82407 13.1412 8.38766C13.5177 8.95125 13.7188 9.61385 13.7188 10.2917C13.7188 10.7417 13.6301 11.1874 13.458 11.6032C13.2857 12.019 13.0332 12.3968 12.715 12.715C12.3968 13.0333 12.019 13.2857 11.6032 13.458C11.1874 13.6301 10.7417 13.7188 10.2917 13.7188Z" fill="white"/>
</svg>
