<svg width="40" height="40" viewBox="0 0 40 40" fill="none" xmlns="http://www.w3.org/2000/svg">
<path fill-rule="evenodd" clip-rule="evenodd" d="M38.1417 28.5713C38.694 28.5713 39.1417 29.019 39.1417 29.5713V35.2856C39.1417 36.3086 38.7354 37.2897 38.012 38.013C37.2887 38.7364 36.3076 39.1427 35.2846 39.1427H29.5703C29.018 39.1427 28.5703 38.695 28.5703 38.1427C28.5703 37.5905 29.018 37.1427 29.5703 37.1427H35.2846C35.7771 37.1427 36.2495 36.9471 36.5978 36.5988C36.9461 36.2505 37.1417 35.7781 37.1417 35.2856V29.5713C37.1417 29.019 37.5895 28.5713 38.1417 28.5713Z" fill="white"/>
<path fill-rule="evenodd" clip-rule="evenodd" d="M28.5703 1C28.5703 0.447715 29.018 0 29.5703 0H35.2846C36.3076 0 37.2887 0.406377 38.012 1.12973C38.7354 1.85309 39.1417 2.83416 39.1417 3.85714V9.57143C39.1417 10.1237 38.694 10.5714 38.1417 10.5714C37.5895 10.5714 37.1417 10.1237 37.1417 9.57143V3.85714C37.1417 3.3646 36.9461 2.89223 36.5978 2.54394C36.2495 2.19566 35.7771 2 35.2846 2H29.5703C29.018 2 28.5703 1.55228 28.5703 1Z" fill="white"/>
<path fill-rule="evenodd" clip-rule="evenodd" d="M3.85714 2C3.3646 2 2.89223 2.19566 2.54394 2.54394C2.19566 2.89223 2 3.3646 2 3.85714V9.57143C2 10.1237 1.55228 10.5714 1 10.5714C0.447715 10.5714 0 10.1237 0 9.57143V3.85714C0 2.83416 0.406376 1.85309 1.12973 1.12973C1.85309 0.406376 2.83416 0 3.85714 0H9.57143C10.1237 0 10.5714 0.447715 10.5714 1C10.5714 1.55228 10.1237 2 9.57143 2H3.85714Z" fill="white"/>
<path fill-rule="evenodd" clip-rule="evenodd" d="M1 28.5713C1.55228 28.5713 2 29.019 2 29.5713V35.2856C2 35.7781 2.19566 36.2505 2.54394 36.5988C2.89223 36.9471 3.3646 37.1427 3.85714 37.1427H9.57143C10.1237 37.1427 10.5714 37.5905 10.5714 38.1427C10.5714 38.695 10.1237 39.1427 9.57143 39.1427H3.85714C2.83416 39.1427 1.85309 38.7364 1.12973 38.013C0.406377 37.2897 0 36.3086 0 35.2856V29.5713C0 29.019 0.447715 28.5713 1 28.5713Z" fill="white"/>
<path fill-rule="evenodd" clip-rule="evenodd" d="M7.94506 19.5714C8.09179 19.7679 8.27712 20.0091 8.49806 20.2834C9.12334 21.0596 10.0275 22.0925 11.1431 23.1223C13.4091 25.214 16.3851 27.1429 19.572 27.1429C22.7589 27.1429 25.7348 25.214 28.0008 23.1223C29.1165 22.0925 30.0206 21.0596 30.6459 20.2834C30.8669 20.0091 31.0522 19.7679 31.1989 19.5714C31.0522 19.375 30.8669 19.1337 30.6459 18.8595C30.0206 18.0833 29.1165 17.0503 28.0008 16.0205C25.7348 13.9288 22.7589 12 19.572 12C16.3851 12 13.4091 13.9288 11.1431 16.0205C10.0275 17.0503 9.12334 18.0833 8.49806 18.8595C8.27712 19.1337 8.09179 19.375 7.94506 19.5714ZM32.4291 19.5714C33.2612 19.0167 33.261 19.0165 33.2608 19.0162L33.2589 19.0133L33.2545 19.0067L33.2394 18.9845C33.2266 18.9656 33.2083 18.9389 33.1846 18.9048C33.1372 18.8365 33.0682 18.7387 32.9788 18.6155C32.8 18.3693 32.5387 18.021 32.2034 17.6048C31.5341 16.7739 30.5632 15.6639 29.3574 14.5509C26.9806 12.3569 23.528 10 19.572 10C15.616 10 12.1634 12.3569 9.78656 14.5509C8.58078 15.6639 7.60992 16.7739 6.94055 17.6048C6.60525 18.021 6.34401 18.3693 6.16518 18.6155C6.07572 18.7387 6.00678 18.8365 5.95939 18.9048C5.93569 18.9389 5.91738 18.9656 5.90457 18.9845L5.8895 19.0067L5.8851 19.0133L5.88368 19.0154C5.88348 19.0157 5.88279 19.0167 6.71484 19.5714L5.88279 19.0167C5.65886 19.3526 5.65886 19.7902 5.88279 20.1261L6.71484 19.5714C5.88279 20.1261 5.88259 20.1258 5.88279 20.1261L5.8851 20.1296L5.8895 20.1361L5.90457 20.1584C5.91738 20.1772 5.93569 20.204 5.95939 20.2381C6.00678 20.3063 6.07572 20.4041 6.16518 20.5273C6.34401 20.7736 6.60525 21.1218 6.94055 21.538C7.60992 22.369 8.58078 23.4789 9.78656 24.5919C12.1634 26.786 15.616 29.1429 19.572 29.1429C23.528 29.1429 26.9806 26.786 29.3574 24.5919C30.5632 23.4789 31.5341 22.369 32.2034 21.538C32.5387 21.1218 32.8 20.7736 32.9788 20.5273C33.0682 20.4041 33.1372 20.3063 33.1846 20.2381C33.2083 20.204 33.2266 20.1772 33.2394 20.1584L33.2545 20.1361L33.2589 20.1296L33.2603 20.1275C33.2605 20.1272 33.2612 20.1261 32.4291 19.5714ZM32.4291 19.5714L33.2612 20.1261C33.4851 19.7902 33.4847 19.3521 33.2608 19.0162L32.4291 19.5714Z" fill="white"/>
<path fill-rule="evenodd" clip-rule="evenodd" d="M19.573 19.1428C19.3364 19.1428 19.1445 19.3347 19.1445 19.5714C19.1445 19.808 19.3364 19.9999 19.573 19.9999C19.8097 19.9999 20.0016 19.808 20.0016 19.5714C20.0016 19.3347 19.8097 19.1428 19.573 19.1428ZM17.1445 19.5714C17.1445 18.2301 18.2318 17.1428 19.573 17.1428C20.9143 17.1428 22.0016 18.2301 22.0016 19.5714C22.0016 20.9126 20.9143 21.9999 19.573 21.9999C18.2318 21.9999 17.1445 20.9126 17.1445 19.5714Z" fill="white"/>
</svg>
