<svg width="40" height="40" viewBox="0 0 40 40" fill="none" xmlns="http://www.w3.org/2000/svg">
<path fill-rule="evenodd" clip-rule="evenodd" d="M9.57414 3.40052C9.58329 3.40027 9.59244 3.40015 9.60159 3.40015H30.4016V4.40015L30.4291 3.40052C31.0655 3.418 31.6888 3.58499 32.2487 3.88799C32.8056 4.18938 33.2842 4.61692 33.6462 5.13636L38.8465 12.3368C39.3614 13.0643 39.6184 13.9429 39.577 14.8332C39.5356 15.7235 39.1981 16.5745 38.6179 17.2511L38.614 17.2557L23.0306 35.2079C22.6728 35.6618 22.2174 36.0296 21.6981 36.2839C21.17 36.5425 20.5897 36.677 20.0016 36.677C19.4136 36.677 18.8333 36.5425 18.3052 36.2839C17.7859 36.0296 17.3305 35.6618 16.9727 35.2079L1.38529 17.2511C0.80515 16.5745 0.467606 15.7235 0.426197 14.8332C0.384788 13.9429 0.6419 13.0643 1.15673 12.3368L1.1623 12.3289L6.35708 5.13622C6.71909 4.61684 7.19764 4.18935 7.75451 3.88799C8.3144 3.58499 8.93775 3.418 9.57414 3.40052ZM30.3866 5.40015H9.61667C9.29829 5.41081 8.98667 5.49526 8.70641 5.64694C8.42251 5.80057 8.17876 6.01886 7.99486 6.28415L7.98369 6.29992L2.78682 13.4956C2.53106 13.8587 2.4034 14.2966 2.42403 14.7403C2.4447 15.1845 2.61281 15.6092 2.90178 15.9471L2.90359 15.9492L18.4997 33.9161C18.5117 33.9299 18.5233 33.944 18.5345 33.9585C18.7081 34.1822 18.9305 34.3632 19.1848 34.4877C19.4391 34.6122 19.7185 34.677 20.0016 34.677C20.2848 34.677 20.5642 34.6122 20.8185 34.4877C21.0727 34.3632 21.2952 34.1822 21.4688 33.9585C21.48 33.944 21.4916 33.9299 21.5036 33.9161L37.0996 15.9492L37.1016 15.947C37.3905 15.609 37.5585 15.1845 37.5792 14.7403C37.5998 14.2967 37.4722 13.8588 37.2165 13.4958L37.2139 13.4921L32.0195 6.29992L32.0084 6.28415C31.8245 6.01886 31.5807 5.80057 31.2968 5.64694C31.0166 5.49526 30.7049 5.41081 30.3866 5.40015Z" fill="#111F61"/>
<path fill-rule="evenodd" clip-rule="evenodd" d="M19.0567 3.53154C19.5207 3.83106 19.6541 4.45002 19.3546 4.91403L12.6675 15.2736L20.9241 35.2177C21.1353 35.728 20.8929 36.313 20.3826 36.5242C19.8723 36.7355 19.2874 36.493 19.0762 35.9828L10.619 15.5542C10.4934 15.2508 10.5248 14.9052 10.7028 14.6294L17.6742 3.82937C17.9738 3.36536 18.5927 3.23202 19.0567 3.53154Z" fill="#111F61"/>
<path fill-rule="evenodd" clip-rule="evenodd" d="M21.0309 3.53028C21.4955 3.23163 22.1142 3.36613 22.4129 3.8307L29.3557 14.6307C29.5334 14.907 29.564 15.253 29.4376 15.5562L20.9233 35.9848C20.7108 36.4945 20.1253 36.7356 19.6156 36.5231C19.1058 36.3106 18.8648 35.7251 19.0772 35.2153L27.3897 15.271L20.7305 4.91222C20.4319 4.44765 20.5664 3.82893 21.0309 3.53028Z" fill="#111F61"/>
<path fill-rule="evenodd" clip-rule="evenodd" d="M0.484375 15.1716C0.484375 14.6193 0.93209 14.1716 1.48438 14.1716H38.5129C39.0652 14.1716 39.5129 14.6193 39.5129 15.1716C39.5129 15.7239 39.0652 16.1716 38.5129 16.1716H1.48438C0.93209 16.1716 0.484375 15.7239 0.484375 15.1716Z" fill="#222222"/>
</svg>
