<svg width="40" height="40" viewBox="0 0 40 40" fill="none" xmlns="http://www.w3.org/2000/svg">
<path fill-rule="evenodd" clip-rule="evenodd" d="M9.28683 2.42871C5.49973 2.42871 2.42969 5.49876 2.42969 9.28585C2.42969 13.0729 5.49973 16.143 9.28683 16.143C13.0739 16.143 16.144 13.0729 16.144 9.28585C16.144 5.49876 13.0739 2.42871 9.28683 2.42871ZM0.429688 9.28585C0.429688 4.39419 4.39517 0.428711 9.28683 0.428711C14.1785 0.428711 18.144 4.39419 18.144 9.28585C18.144 14.1775 14.1785 18.143 9.28683 18.143C4.39517 18.143 0.429688 14.1775 0.429688 9.28585Z" fill="#111F61"/>
<path fill-rule="evenodd" clip-rule="evenodd" d="M30.7165 2.42871C26.9294 2.42871 23.8594 5.49876 23.8594 9.28585C23.8594 13.0729 26.9294 16.143 30.7165 16.143C34.5036 16.143 37.5737 13.0729 37.5737 9.28585C37.5737 5.49876 34.5036 2.42871 30.7165 2.42871ZM21.8594 9.28585C21.8594 4.39419 25.8249 0.428711 30.7165 0.428711C35.6082 0.428711 39.5737 4.39419 39.5737 9.28585C39.5737 14.1775 35.6082 18.143 30.7165 18.143C25.8249 18.143 21.8594 14.1775 21.8594 9.28585Z" fill="#222222"/>
<path fill-rule="evenodd" clip-rule="evenodd" d="M9.28683 23.8572C5.49973 23.8572 2.42969 26.9272 2.42969 30.7143C2.42969 34.5014 5.49973 37.5715 9.28683 37.5715C13.0739 37.5715 16.144 34.5014 16.144 30.7143C16.144 26.9272 13.0739 23.8572 9.28683 23.8572ZM0.429688 30.7143C0.429688 25.8227 4.39517 21.8572 9.28683 21.8572C14.1785 21.8572 18.144 25.8227 18.144 30.7143C18.144 35.606 14.1785 39.5715 9.28683 39.5715C4.39517 39.5715 0.429688 35.606 0.429688 30.7143Z" fill="#222222"/>
<path fill-rule="evenodd" clip-rule="evenodd" d="M30.7165 23.8572C26.9294 23.8572 23.8594 26.9272 23.8594 30.7143C23.8594 34.5014 26.9294 37.5715 30.7165 37.5715C34.5036 37.5715 37.5737 34.5014 37.5737 30.7143C37.5737 26.9272 34.5036 23.8572 30.7165 23.8572ZM21.8594 30.7143C21.8594 25.8227 25.8249 21.8572 30.7165 21.8572C35.6082 21.8572 39.5737 25.8227 39.5737 30.7143C39.5737 35.606 35.6082 39.5715 30.7165 39.5715C25.8249 39.5715 21.8594 35.606 21.8594 30.7143Z" fill="#111F61"/>
</svg>
