<svg width="20" height="14" viewBox="0 0 20 14" fill="none" xmlns="http://www.w3.org/2000/svg">
<path opacity="0.7" d="M18.9502 2.91534C18.9502 2.91534 18.7631 1.59086 18.1874 1.0093C17.4584 0.243889 16.6434 0.240129 16.2696 0.195103C13.593 -5.96046e-08 9.57411 0 9.57411 0H9.56663C9.56663 0 5.54782 -5.96046e-08 2.87111 0.195103C2.49727 0.240129 1.68229 0.243889 0.953299 1.0093C0.377579 1.59086 0.194397 2.91534 0.194397 2.91534C0.194397 2.91534 0 4.47244 0 6.02578V7.48157C0 9.03493 0.190659 10.592 0.190659 10.592C0.190659 10.592 0.377579 11.9165 0.949565 12.498C1.67855 13.2635 2.63559 13.2372 3.06178 13.3197C4.59453 13.466 9.57037 13.5111 9.57037 13.5111C9.57037 13.5111 13.593 13.5036 16.2696 13.3123C16.6434 13.2672 17.4584 13.2635 18.1874 12.498C18.7631 11.9165 18.9502 10.592 18.9502 10.592C18.9502 10.592 19.1407 9.03868 19.1407 7.48157V6.02578C19.1407 4.47244 18.9502 2.91534 18.9502 2.91534ZM7.59275 9.24878V3.8496L12.763 6.55857L7.59275 9.24878Z" fill="white"/>
</svg>
